<svg xmlns="http://www.w3.org/2000/svg" xmlns:xlink="http://www.w3.org/1999/xlink" width="204.351" height="111.595" viewBox="0 0 204.351 111.595">
  <defs>
    <linearGradient id="linear-gradient" x1="0.018" x2="1.102" y2="1.143" gradientUnits="objectBoundingBox">
      <stop offset="0" stop-color="#ec1279"/>
      <stop offset="1" stop-color="#ff7000"/>
    </linearGradient>
    <filter id="Path_20" x="0" y="10.148" width="204.351" height="88.925" filterUnits="userSpaceOnUse">
      <feOffset dy="3" input="SourceAlpha"/>
      <feGaussianBlur stdDeviation="3" result="blur"/>
      <feFlood flood-opacity="0.161"/>
      <feComposite operator="in" in2="blur"/>
      <feComposite in="SourceGraphic"/>
    </filter>
  </defs>
  <g id="Group_23" data-name="Group 23" transform="translate(-1576.962 -34.652)">
    <g id="Group_104" data-name="Group 104">
      <rect id="Rectangle_44" data-name="Rectangle 44" width="35" height="25" transform="translate(1633 90)" fill="#191919"/>
      <g id="Group_22" data-name="Group 22" transform="translate(1577.61 34.652)">
        <g transform="matrix(1, 0, 0, 1, -0.65, 0)" filter="url(#Path_20)">
          <path id="Path_20-2" data-name="Path 20" d="M1105.357,874.648l-105.226-.283v-.015c-.265,0-.53.007-.8.015-.656.019-1.022-.147-1.207-.816-.587-2.122-1.282-4.217-1.854-6.343a3.773,3.773,0,0,0-4.679-2.953c-2.045.535-4.066,1.158-6.1,1.729-1.942.544-3.889,1.071-5.845,1.609,0-.1-.017-.157,0-.2a1.013,1.013,0,0,1,.147-.213,14.606,14.606,0,0,0,3.756-10.846,8.479,8.479,0,0,0-4.878-6.759,10.855,10.855,0,0,0-5.111-.535,10.018,10.018,0,0,0-8.265,6.23,22.862,22.862,0,0,0-1.083,9.223c.045,1.01.007,2.022.007,3.031-.357,0-.443-.223-.577-.357a39.957,39.957,0,0,0-5.828-4.965c-2.364-1.6-4.827-2.908-7.884-2.829-3.943.1-7.291,4.263-6.277,7.982.846,3.106,3.125,5.03,5.848,6.559.829.466,1.718.832,2.586,1.247-.084.224-.242.214-.377.253-1.69.493-3.36,1.072-5.075,1.46-1.463.331-2.818.964-4.3,1.231a3.782,3.782,0,0,0-3.229,2.792c-.384,1.309.176,2.423.5,3.589.569,2.066,1.264,4.1,1.8,6.173.577,2.239,2.179,3.68,4.184,3.378.926-.139,1.32.055,1.457.9a4.739,4.739,0,0,0,.2.566q1.253,4.193,2.5,8.387c.78,2.633,1.484,5.289,2.346,7.9a40.077,40.077,0,0,0,1.969,5.909,3.762,3.762,0,0,0,4.657,1.988c2.724-.816,5.463-1.584,8.2-2.353,4.211-1.182,8.42-2.369,12.645-3.5a13.992,13.992,0,0,1,3.7-.725q8.035.009,16.07.015v.017l106.021.283c11.032,0,19.976-8.678,19.976-19.384h0C1125.333,883.327,1116.39,874.648,1105.357,874.648ZM969.1,856.521a5.771,5.771,0,0,1,5.257-3.7,5.215,5.215,0,0,1,2.451.145,4.308,4.308,0,0,1,2.849,4.172c.159,3.625-1.614,6.475-4.2,8.918a24.585,24.585,0,0,1-6.291,3.924c-.427.209-.5.068-.533-.309a39.3,39.3,0,0,1-.5-6.623A14.788,14.788,0,0,1,969.1,856.521Zm-19.544,12.734a6.417,6.417,0,0,1-1.834-2.27,2.353,2.353,0,0,1,.514-2.773,2.8,2.8,0,0,1,3-.946,17.241,17.241,0,0,1,6.861,4.074c1.5,1.281,2.838,2.733,4.236,4.121.148.146.459.275.317.549a.658.658,0,0,1-.624.258c-1.008-.019-1.986.308-2.7.246A15.781,15.781,0,0,1,949.556,869.255Zm-.764,20.074c-.991.274-2,.512-2.964.851-.446.156-.6.026-.711-.325q-.735-2.377-1.455-4.758c-.28-.931-.518-1.874-.816-2.8-.118-.365-.14-.541.32-.667,3.055-.837,6.1-1.7,9.149-2.567,2.795-.794,5.585-1.6,8.378-2.4.2-.056.395-.1.5-.13.709-.017.8.456.924.852.69,2.271,1.349,4.551,2.043,6.82.166.544.1.824-.537.995-2.295.61-4.57,1.288-6.857,1.927C954.108,887.869,951.449,888.594,948.792,889.329Zm21.9,23.2c-2.355.613-4.689,1.3-7.032,1.953-1.863.52-3.73,1.028-5.587,1.571-.441.129-.6-.054-.708-.4q-1.017-3.366-2.028-6.734-.962-3.2-1.919-6.409c-.777-2.6-1.581-5.2-2.307-7.814-.178-.641-.811-1.343-.4-1.93.352-.508,1.236-.384,1.878-.565q5.967-1.684,11.94-3.348c.142-.04.284-.077.365-.1.5-.045.6.253.7.571.618,2.024,1.254,4.042,1.859,6.069.655,2.192,1.276,4.393,1.924,6.586.777,2.632,1.568,5.259,2.353,7.889.066.22.126.441.193.66C972.367,911.994,972.245,912.124,970.695,912.527Zm5.938-31c-.739.117-.845-.3-.952-.64-.4-1.281-.778-2.571-1.161-3.858-.318-1.069-.607-2.146-.959-3.2-.176-.527-.092-.754.5-.917,3.562-.981,7.112-2.005,10.666-3.011,2.426-.687,4.856-1.359,7.277-2.058.492-.142.633.1.745.471.422,1.4.853,2.788,1.274,4.183.322,1.067.617,2.142.961,3.2.13.4.136.618-.358.753-3.081.844-6.154,1.71-9.228,2.577q-4.187,1.182-8.368,2.381C976.832,881.467,976.637,881.53,976.633,881.531Zm21.452,23.122c-1.342.413-2.7.782-4.053,1.161q-3.427.959-6.856,1.911-1.227.342-2.455.681c-.469.13-.75.04-.9-.487q-.184-.631-.37-1.261h0l-.045-.151q-.649-2.208-1.319-4.409L981,898.462c-.159-.587-.322-1.173-.523-1.747l-1.843-6.156c-.054-.183-.108-.366-.162-.548-.035-.119-.073-.237-.109-.356l-.125-.42h0q-.505-1.663-1.029-3.321c-.191-.607.159-.821.671-.966,1.975-.558,3.945-1.133,5.921-1.688,2.258-.634,4.523-1.244,6.778-1.885.679-.193,1.364-.577,1.648.485l.76,2.56a.91.91,0,0,0,.084.325c.015.032.027.066.042.1l.55,1.855a12.921,12.921,0,0,0,.348,1.33c.209.62.408,1.243.6,1.867l1.441,4.856c.907,3.038,1.8,6.079,2.718,9.116C998.949,904.486,998.432,904.547,998.084,904.654Z" transform="translate(-929.98 -832.8)" fill="url(#linear-gradient)"/>
        </g>
        <g id="Group_21" data-name="Group 21" transform="translate(0)">
          <path id="Path_21" data-name="Path 21" d="M1294.777,798.182q1.138-1.475,2.275-2.949l11.018-14.322c.382-.5.792-.975,1.139-1.5.43-.645.719-.441,1.04.088q1.842,3.037,3.7,6.061c.343.56.677,1.128,1.041,1.674.338.506.307.806-.3,1.112-2.859,1.434-5.69,2.924-8.538,4.379q-5.446,2.781-10.9,5.537a1.6,1.6,0,0,1-.311.086Z" transform="translate(-1225.234 -774.892)" fill="url(#linear-gradient)"/>
          <path id="Path_22" data-name="Path 22" d="M1261.3,773.922c-.443-2.645-.842-5.235-1.139-7.844-.216-1.9-.6-3.777-.89-5.667-.212-1.354-.4-2.712-.607-4.067-.111-.713.1-1.018.895-1.03,2.745-.043,5.489-.177,8.234-.249,1.162-.031,1.223.066.815,1.1q-2.778,7.049-5.571,14.092c-.4,1.007-.8,2.014-1.187,3.024A.892.892,0,0,1,1261.3,773.922Z" transform="translate(-1195.307 -755.06)" fill="url(#linear-gradient)"/>
          <path id="Path_23" data-name="Path 23" d="M908.082,1288.174a7.266,7.266,0,0,1-1.367,1.872q-5.27,6.206-10.582,12.377c-.335.391-.68.774-1,1.175-.289.358-.5.416-.755-.053-1.273-2.333-2.564-4.656-3.852-6.98-.235-.424-.036-.6.348-.767,2.218-.984,4.424-1.994,6.637-2.988q5-2.246,10-4.481A4.963,4.963,0,0,1,908.082,1288.174Z" transform="translate(-890.42 -1196.487)" fill="url(#linear-gradient)"/>
          <path id="Path_24" data-name="Path 24" d="M975.092,1327.829a40.687,40.687,0,0,0-6.486-.27c-.728,0-.825-.308-.548-.91q2.894-6.29,5.773-12.587c.261-.569.515-1.141.758-1.718.088-.208.206-.363.44-.3.214.055.177.271.177.431,0,2.288.376,4.551.588,6.818.217,2.325.285,4.672.682,6.983C976.712,1327.645,976.542,1327.872,975.092,1327.829Z" transform="translate(-954.588 -1216.239)" fill="url(#linear-gradient)"/>
          <path id="Path_25" data-name="Path 25" d="M1322.709,888.876c1.444-.516,2.671-.958,3.9-1.394,1.343-.476,2.7-.918,4.027-1.432.72-.279,1.22-.243,1.637.495.646,1.143,1.369,2.243,2.056,3.364.3.485.137.727-.408.632-2.195-.385-4.428-.47-6.621-.879-.979-.183-1.987-.207-2.981-.308A3.225,3.225,0,0,1,1322.709,888.876Z" transform="translate(-1248.362 -863.389)" fill="url(#linear-gradient)"/>
          <path id="Path_26" data-name="Path 26" d="M922.959,1268.231a7.984,7.984,0,0,1-2.446.877c-1.489.487-3.016.858-4.51,1.331a.87.87,0,0,1-1.195-.475c-.486-.905-.99-1.8-1.481-2.7-.107-.2-.316-.426-.189-.625.153-.24.481-.157.72-.119,1.465.235,2.936.448,4.385.759A42.834,42.834,0,0,1,922.959,1268.231Z" transform="translate(-909.198 -1178.516)" fill="url(#linear-gradient)"/>
        </g>
      </g>
      <g id="Group_20" data-name="Group 20" transform="translate(1590.561 54.779)">
        <path id="Path_14" data-name="Path 14" d="M1104.231,874.769a5.61,5.61,0,0,1,5.1-3.7,4.918,4.918,0,0,1,2.378.145,4.308,4.308,0,0,1,2.765,4.172c.154,3.625-1.566,6.475-4.074,8.918a23.756,23.756,0,0,1-6.1,3.924c-.414.209-.484.068-.518-.309a40.493,40.493,0,0,1-.484-6.622A15.2,15.2,0,0,1,1104.231,874.769Z" transform="translate(-1078.684 -870.998)" fill="#fff"/>
        <path id="Path_15" data-name="Path 15" d="M988.9,937.6a6.385,6.385,0,0,1-1.779-2.27,2.4,2.4,0,0,1,.5-2.773,2.674,2.674,0,0,1,2.909-.946,16.637,16.637,0,0,1,6.658,4.074c1.453,1.281,2.754,2.733,4.11,4.121.143.146.445.275.307.549a.629.629,0,0,1-.605.258c-.978-.019-1.927.308-2.623.246A15.021,15.021,0,0,1,988.9,937.6Z" transform="translate(-982.318 -921.093)" fill="#fff"/>
        <path id="Path_16" data-name="Path 16" d="M966.217,1022.084c-.962.274-1.937.512-2.876.851-.433.156-.585.026-.69-.325q-.713-2.377-1.412-4.758c-.271-.931-.5-1.874-.792-2.8-.114-.365-.136-.541.311-.668,2.964-.837,5.921-1.7,8.878-2.567,2.712-.794,5.42-1.6,8.13-2.4.19-.056.383-.1.481-.13.688-.017.78.456.9.852.669,2.271,1.309,4.551,1.983,6.82.161.544.1.824-.521.994-2.227.61-4.435,1.288-6.654,1.927C971.375,1020.623,968.795,1021.349,966.217,1022.084Z" transform="translate(-960.377 -985.505)" fill="#fff"/>
        <path id="Path_17" data-name="Path 17" d="M1023.922,1104.1c-2.285.613-4.55,1.3-6.824,1.953-1.808.521-3.62,1.028-5.422,1.57-.428.129-.586-.054-.687-.4q-.987-3.366-1.968-6.734-.933-3.2-1.863-6.409c-.754-2.6-1.535-5.2-2.239-7.814-.173-.641-.787-1.343-.392-1.93.342-.508,1.2-.384,1.822-.565q5.79-1.684,11.587-3.348c.137-.04.275-.076.354-.1.484-.045.58.252.675.571.6,2.024,1.217,4.042,1.8,6.069.635,2.192,1.238,4.393,1.867,6.586.755,2.631,1.522,5.259,2.284,7.889.064.22.122.441.188.66C1025.545,1103.571,1025.426,1103.7,1023.922,1104.1Z" transform="translate(-996.828 -1044.327)" fill="#fff"/>
        <path id="Path_18" data-name="Path 18" d="M1136.686,972.248c-.717.117-.82-.3-.924-.64-.392-1.281-.755-2.571-1.126-3.858-.308-1.068-.588-2.146-.93-3.2-.171-.527-.089-.754.484-.917,3.457-.981,6.9-2.005,10.35-3.011,2.354-.687,4.712-1.359,7.062-2.058.478-.142.614.1.722.471.41,1.395.828,2.788,1.236,4.183.312,1.067.6,2.142.932,3.2.126.4.132.618-.347.753-2.989.844-5.973,1.71-8.955,2.578q-4.063,1.181-8.12,2.38C1136.88,972.184,1136.691,972.247,1136.686,972.248Z" transform="translate(-1103.83 -943.467)" fill="#fff"/>
        <path id="Path_19" data-name="Path 19" d="M1174.649,1059.616c-1.3.413-2.619.782-3.933,1.161q-3.326.96-6.653,1.911l-2.382.681c-.456.13-.728.04-.877-.487q-.178-.631-.359-1.261h0l-.044-.152q-.629-2.207-1.28-4.409l-1.056-3.635c-.155-.587-.312-1.173-.508-1.748l-1.788-6.156q-.079-.274-.157-.548c-.034-.119-.071-.237-.105-.356l-.122-.419h0q-.49-1.663-1-3.321c-.186-.606.154-.821.651-.965,1.917-.558,3.828-1.133,5.746-1.688,2.191-.634,4.389-1.244,6.577-1.885.659-.193,1.323-.577,1.6.485l.737,2.56a.932.932,0,0,0,.082.325c.015.032.026.066.04.1l.534,1.855a13.286,13.286,0,0,0,.337,1.33c.2.62.4,1.243.583,1.867l1.4,4.856c.88,3.038,1.751,6.079,2.637,9.116C1175.489,1059.448,1174.987,1059.508,1174.649,1059.616Z" transform="translate(-1120.977 -1007.712)" fill="#fff"/>
      </g>
      <text id="GIFT_a_skill" data-name="GIFT a skill" transform="translate(1657 101.652)" fill="#fff" font-size="20" font-family="SegoeUI, Segoe UI" letter-spacing="0.025em"><tspan x="0" y="0">GIFT a skill</tspan></text>
    </g>
  </g>
</svg>
