<svg id="Group_90" data-name="Group 90" xmlns="http://www.w3.org/2000/svg" width="154.379" height="179.448" viewBox="0 0 154.379 179.448">
  <g id="Rectangle_77" data-name="Rectangle 77" transform="translate(13.874 68.52)" fill="#fff" stroke="#707070" stroke-width="1">
    <rect width="127.524" height="106.587" stroke="none"/>
    <rect x="0.5" y="0.5" width="126.524" height="105.587" fill="none"/>
  </g>
  <g id="Rectangle_54" data-name="Rectangle 54" transform="translate(4.358 49.487)" fill="#fff" stroke="#707070" stroke-width="1">
    <rect width="144.654" height="19.033" stroke="none"/>
    <rect x="0.5" y="0.5" width="143.654" height="18.033" fill="none"/>
  </g>
  <path id="Path_35" data-name="Path 35" d="M-18.949,1931.083q.011-2.461,0-4.92,0-2.687.006-5.373a11.863,11.863,0,0,0-.26-2.515,11.083,11.083,0,0,0-3.032-5.783c-.064-.073-.127-.147-.193-.219a12.9,12.9,0,0,0-9.49-4q-.653-.036-1.316-.035l-2.539,0c-8.132-.045-16.264,0-24.4,0h-1.448a35,35,0,0,0,6.322-2.3c6.157-3.256,9.993-8.3,10.99-15.257a19.52,19.52,0,0,0-5.3-16.818,19.8,19.8,0,0,0-10.757-6.059,19.891,19.891,0,0,0-9.845.447,17.539,17.539,0,0,0-5.307,2.549,31.767,31.767,0,0,0-6.741,7.516,145.811,145.811,0,0,0-9.5,15.83c-.31.577-.6.789-1.25.587a10.193,10.193,0,0,0-6.311.018c-.61.2-.887,0-1.17-.548-1.615-3.121-3.32-6.2-5.155-9.191a102.052,102.052,0,0,0-7.3-10.553,17.9,17.9,0,0,0-10.992-6.677,19.659,19.659,0,0,0-12.542,1.578,20.017,20.017,0,0,0-11.336,14.47,19.186,19.186,0,0,0,1.627,12.726,19.786,19.786,0,0,0,11.611,10.321c1.25.426,2.5.846,4.022,1.358-9.686,0-19.082-.011-28.478.006-3.407.006-6.653.6-9.42,2.808a11.478,11.478,0,0,0-4.763,8.708c-.2,6.472-.059,12.954-.072,19.43a4.69,4.69,0,0,0,1.344,3.256,5.605,5.605,0,0,0,4.486,1.858c1.342-.027,1.406,0,1.432,1.192h0v.259s0,.006,0,.009v4.525c0,.127,0,.256,0,.385v22.514h0c.009,11.621,1.162,49.757,1.168,61.377a11.5,11.5,0,0,0,2.359,7,12.478,12.478,0,0,0,10.643,5.2q37.051-.048,74.1,0c10,.011,20-.072,29.994.055,3.475.044,6.961.011,10.441-.07a13.966,13.966,0,0,0,2.671-.335,12.651,12.651,0,0,0,9.6-12.225c-.061-3.22,0-6.442,0-9.663,0-12.987-1.2-74.111-1.2-74.238v-4.525s0-.006,0-.009v-.259h.005c.026-1.2.09-1.219,1.432-1.192a5.605,5.605,0,0,0,4.486-1.858,4.69,4.69,0,0,0,1.344-3.256c0-.2,0-.406,0-.609h.034Q-18.949,1934.832-18.949,1931.083Zm-83.137,103.623c0,1.458,0,1.453-1.439,1.361-.435-.028-.872-.02-1.308-.02l-46.166,0c-.436,0-.873.009-1.308-.008-1.319-.054-1.839-.542-1.855-1.859-.029-2.347-.009-4.7-.009-7.044,0-18.245-1.151-63-1.153-81.247,0-1.592,0-1.594,1.616-1.594h48.984c1.488,0,1.491,0,1.491,1.5q0,15.6,0,31.2C-103.233,1987.39-102.085,2024.305-102.086,2034.706Zm-1.147-102.483c0,1.335-.006,1.341-1.346,1.343-12.95,0-30.1.007-43.046,0-4.6,0-9.2-.015-13.807.024-1.036.008-1.315-.326-1.3-1.327.054-3.455.013-6.911.028-10.367.005-1.171.117-2.3,1.472-2.793a3.668,3.668,0,0,1,1.289-.135q12.783-.005,25.565,0c8.555,0,21.305.017,29.86-.022,1.024-.005,1.319.29,1.306,1.306C-103.264,1924.238-103.23,1928.231-103.233,1932.223Zm-3.914-29.712c-.169.233-.433.1-.656.071-3.337-.438-6.659-.966-9.976-1.543-2.632-.458-5.267-.905-7.859-1.536-2.811-.684-5.719-1.167-8.192-2.817a10.555,10.555,0,0,1-4.744-8.929,10.8,10.8,0,0,1,13.311-10.467,9.88,9.88,0,0,1,5.549,3.881,108.125,108.125,0,0,1,8.178,12.851c1.464,2.59,2.828,5.235,4.24,7.854C-107.186,1902.079-106.976,1902.273-107.147,1902.511Zm22.209-.645q2.845-5.533,5.99-10.9a97.945,97.945,0,0,1,6.364-9.726,9.641,9.641,0,0,1,8.213-4.209,10.733,10.733,0,0,1,10.439,13.213,10.4,10.4,0,0,1-6.982,7.656,72.887,72.887,0,0,1-9.792,2.459c-3.236.653-6.5,1.155-9.754,1.67-1.317.208-2.642.361-3.961.557C-85.1,1902.688-85.306,1902.579-84.939,1901.866Zm-1.963,17.079c14.189.021,31.676.019,45.865.019h8.877a4.546,4.546,0,0,1,1.033.105l.1.03a2,2,0,0,1,1.126.9,3.615,3.615,0,0,1,.256,1.5c.007,3.655-.031,7.312.027,10.967a1.217,1.217,0,0,1-.21.874,1.144,1.144,0,0,1-.682.232c-.074,0-.152.007-.237.007q-.953,0-1.906,0-4.19-.025-8.381-.018v.005q-8.088-.005-16.175,0H-86.671c-1.422,0-1.425,0-1.425-1.46,0-3.991.025-7.982-.018-11.973C-88.125,1919.2-87.817,1918.944-86.9,1918.945Zm49.007,117.147c-.5-.032-1.005-.045-1.508-.045-14.5.005-32.292.008-46.788.031-.593,0-.791-.194-.759-.744.017-.3,0-.6,0-.9,0-10.337-1.147-47.187-1.147-57.523q0-15.6,0-31.208c0-1.4.005-1.4,1.381-1.4,15.034,0,33.366,0,48.4,0h.052c1.323.008,1.325.1,1.325,1.594q0,13.764,0,27.531h.027c0,11.394,1.145,49.3,1.143,60.7C-35.771,2035.577-36.438,2036.182-37.895,2036.092Z" transform="translate(173.32 -1867.388)" fill="#e61b67"/>
</svg>
