<svg xmlns="http://www.w3.org/2000/svg" xmlns:xlink="http://www.w3.org/1999/xlink" width="830" height="851" viewBox="0 0 830 851">
  <defs>
    <linearGradient id="linear-gradient" x1="0.348" y1="-0.039" x2="0.827" y2="1.654" gradientUnits="objectBoundingBox">
      <stop offset="0.047" stop-color="#ff007b"/>
      <stop offset="0.831" stop-color="#ff6500"/>
    </linearGradient>
    <linearGradient id="linear-gradient-2" x1="-0.04" y1="-0.089" x2="0.686" y2="0.658" xlink:href="#linear-gradient"/>
    <clipPath id="clip-Artboard_3">
      <rect width="830" height="851"/>
    </clipPath>
  </defs>
  <g id="Artboard_3" data-name="Artboard – 3" clip-path="url(#clip-Artboard_3)">
    <rect width="830" height="851" fill="transparant"/>
    <path id="Path_40" data-name="Path 40" d="M-1216.021,792.431a89.321,89.321,0,0,0-18.825-33.468,87.123,87.123,0,0,0-48.478-28.623c-9.652-2.057-19.563-3.432-29.831-1.538-7.325,1.349-14.606,2.424-21.58,5.1-13.814,5.29-25.741,13.113-34.947,24.949a130.517,130.517,0,0,0-10.308,15.724c-.524,1.083-13.983,28.832-21.026,49.05-.188.557-.383,1.105-.567,1.664l-.089.261q-.616,1.859-1.2,3.735l-.057.174c-2.043,6.523-3.919,13.228-6.182,20.121-.926-2.483-1.679-4.06-2.109-5.726a348.709,348.709,0,0,0-18.767-52.8c-5.318-12.086-11.417-23.755-19.951-33.851-16.777-19.838-39.178-27.739-64.391-29.375-4.309-.28-8.327,1.311-12.548,1.328a51.964,51.964,0,0,0-17.032,3.637,92.411,92.411,0,0,0-40.733,27.61,89.484,89.484,0,0,0-20.568,44.275,87.727,87.727,0,0,0,8.392,54.6,86.1,86.1,0,0,0,32.443,35.948,74.283,74.283,0,0,0,10.844,5.4,252.4,252.4,0,0,0,36.062,8.005,3.93,3.93,0,0,1,2.262.056c.821.218,1.651.405,2.48.571a162.7,162.7,0,0,0,16.258,1.171c.773,0,1.545.012,2.318.023.853,0,1.65.007,2.4.024a543.626,543.626,0,0,0,57.47-1.7c11.834-1.124,23.7-3.247,35.85-1.373a319.117,319.117,0,0,0,34.806,2.816c15.508.67,31.03.609,46.56-.052,3.273-.139,6.524-.447,9.768-.814,2.6-.294,22.606-2.638,35.584-6.176,2.732-.833,5.417-1.779,8.04-2.866a8.735,8.735,0,0,1,1.006-.432,67.991,67.991,0,0,0,16.4-9.883c9.46-7.779,17.7-16.667,23.146-27.777a100.845,100.845,0,0,0,9.05-25A92.273,92.273,0,0,0-1216.021,792.431Zm-224.174,86.219c-10.318-.284-20.445,2.882-28.55,1.674a441.315,441.315,0,0,1-49.124-3c-9.785-1.046-19.885-2.2-29.018-6.7-12.074-5.947-19.98-15.8-25.488-27.747a63.614,63.614,0,0,1-5.092-22.083,54.177,54.177,0,0,1,5.672-26.834c8.745-18.682,23.443-30.61,43.721-33.964,16.267-2.69,32.234-.438,45.888,10.153,7.983,6.194,12.751,14.9,17.274,23.652a323.336,323.336,0,0,1,22.157,56.958c2.2,7.419,4.579,14.784,6.853,22.189C-1434.4,877.8-1435.011,878.792-1440.195,878.651Zm193.2-33.057c-8.3,17.3-22.258,27.255-41.767,30.151-18.988,2.819-38.041,3.764-57.116,4.815-11.613,1.145-22.989-2.313-34.554-1.655-3.714.211-3.4-2.066-2.718-4.4,2.649-9.041,5.165-18.118,8.122-27.053a404.977,404.977,0,0,1,18.6-48.074c4.262-8.9,8.554-17.873,15.558-25.078A50.158,50.158,0,0,1-1306,759.085c12.532-.611,24.537.919,35.42,7.654a60.766,60.766,0,0,1,28.619,40.538,57.781,57.781,0,0,1-5.03,38.316Z" transform="translate(1824.321 -641.144)" fill="url(#linear-gradient)"/>
    <path id="Path_50" data-name="Path 50" d="M-1395.2,1317.514h-193.58a25.286,25.286,0,0,1-25.285-25.287V1003.341H-1395.2Zm25.26,0h193.578a25.286,25.286,0,0,0,25.287-25.287V1003.341h-218.865ZM-1395.2,846.64h-229.989a20.883,20.883,0,0,0-20.884,20.884v91a20.882,20.882,0,0,0,20.884,20.884H-1395.2Zm25.26,132.769h235.156a20.882,20.882,0,0,0,20.884-20.884v-91a20.883,20.883,0,0,0-20.884-20.884h-235.156Z" transform="translate(1794.984 -553.163)" fill="url(#linear-gradient-2)"/>
  </g>
</svg>
