<svg xmlns="http://www.w3.org/2000/svg" width="23.744" height="23.019" viewBox="0 0 23.744 23.019"><g transform="translate(23.744) rotate(90)"><path d="M0,11.487C0,8.479.011,5.469,0,2.461,0,1.542.083.683,1.011.191,1.922-.291,2.6.231,3.27.737c3.885,2.945,7.78,5.879,11.643,8.854,1.925,1.483,1.917,2.365-.034,3.866-3.864,2.974-7.759,5.906-11.646,8.85-.672.509-1.363,1.006-2.264.5A2.136,2.136,0,0,1,0,20.669C.012,17.609.005,14.547,0,11.487Z" transform="translate(0 16.349) rotate(-90)" fill="#e7147a"/><path d="M0,11.487C0,8.479.011,5.469,0,2.461,0,1.542.083.683,1.011.191,1.922-.291,2.6.231,3.27.737c3.885,2.945,7.78,5.879,11.643,8.854,1.925,1.483,1.917,2.365-.034,3.866-3.864,2.974-7.759,5.906-11.646,8.85-.672.509-1.363,1.006-2.264.5A2.136,2.136,0,0,1,0,20.669C.012,17.609.005,14.547,0,11.487Z" transform="translate(0 23.744) rotate(-90)" fill="#131820"/></g></svg>