<svg xmlns="http://www.w3.org/2000/svg" xmlns:xlink="http://www.w3.org/1999/xlink" width="107.404" height="128.42" viewBox="0 0 107.404 128.42"><defs><linearGradient id="a" x1="0.018" x2="1.102" y2="1.143" gradientUnits="objectBoundingBox"><stop offset="0" stop-color="#ec1279"/><stop offset="1" stop-color="#ff7000"/></linearGradient><filter id="g" x="0" y="4.664" width="98.542" height="108.931" filterUnits="userSpaceOnUse"><feOffset dy="5" input="SourceAlpha"/><feGaussianBlur stdDeviation="1" result="h"/><feFlood flood-opacity="0.161"/><feComposite operator="in" in2="h"/><feComposite in="SourceGraphic"/></filter></defs><g transform="translate(-926.835 -627.29)"><g transform="translate(930.697 627.29)"><path d="M1294.777,801.072q1.309-1.7,2.619-3.394,6.341-8.24,12.679-16.482c.44-.572.911-1.122,1.311-1.722.5-.742.828-.508,1.2.1q2.12,3.494,4.262,6.975c.395.645.779,1.3,1.2,1.926.388.583.354.928-.348,1.279-3.29,1.65-6.547,3.365-9.825,5.039q-6.267,3.2-12.548,6.372a1.845,1.845,0,0,1-.358.1Z" transform="translate(-1214.749 -774.271)" fill="url(#a)"/><path d="M1261.7,776.766c-.51-3.044-.969-6.025-1.311-9.027-.249-2.184-.685-4.347-1.025-6.521-.243-1.558-.457-3.121-.7-4.68-.127-.82.11-1.171,1.03-1.186,3.159-.05,6.317-.2,9.476-.287,1.337-.035,1.408.076.938,1.27q-3.2,8.112-6.411,16.217c-.458,1.159-.917,2.318-1.366,3.48A1.026,1.026,0,0,1,1261.7,776.766Z" transform="translate(-1185.759 -755.06)" fill="url(#a)"/><path d="M910.745,1288.174a8.359,8.359,0,0,1-1.573,2.155q-6.065,7.142-12.178,14.243c-.385.45-.782.891-1.155,1.352-.333.412-.575.478-.869-.061-1.465-2.685-2.951-5.358-4.433-8.032-.271-.489-.041-.687.4-.883,2.552-1.132,5.091-2.294,7.637-3.438q5.752-2.584,11.509-5.156A5.744,5.744,0,0,1,910.745,1288.174Z" transform="translate(-890.42 -1182.663)" fill="url(#a)"/><path d="M976.175,1330.212a46.821,46.821,0,0,0-7.464-.311c-.837,0-.95-.354-.631-1.047q3.331-7.238,6.644-14.484c.3-.655.593-1.313.873-1.977.1-.239.237-.418.507-.348.247.063.2.312.2.5,0,2.634.433,5.237.676,7.846.249,2.676.328,5.377.784,8.035C978.038,1330,977.843,1330.26,976.175,1330.212Z" transform="translate(-952.578 -1201.797)" fill="url(#a)"/><path d="M1322.709,889.327c1.662-.594,3.074-1.1,4.488-1.6,1.546-.548,3.106-1.056,4.635-1.648.828-.321,1.4-.279,1.884.57.744,1.316,1.576,2.582,2.366,3.871.342.558.158.837-.47.727-2.526-.443-5.1-.54-7.619-1.012-1.126-.21-2.286-.238-3.431-.354A3.712,3.712,0,0,1,1322.709,889.327Z" transform="translate(-1237.153 -859.997)" fill="url(#a)"/><path d="M924.446,1268.5a9.183,9.183,0,0,1-2.815,1.01c-1.714.561-3.471.987-5.19,1.532a1,1,0,0,1-1.375-.547c-.56-1.042-1.139-2.073-1.7-3.112-.124-.227-.363-.491-.218-.719.176-.276.553-.181.828-.137,1.686.271,3.379.516,5.047.874A49.3,49.3,0,0,1,924.446,1268.5Z" transform="translate(-908.61 -1165.255)" fill="url(#a)"/></g><g transform="translate(929.835 631.954)"><g transform="matrix(1, 0, 0, 1, -3, -4.66)" filter="url(#g)"><path d="M73.05,30.141q.005-1.165,0-2.328,0-1.271,0-2.542a5.615,5.615,0,0,0-.123-1.19A5.244,5.244,0,0,0,71.5,21.344c-.03-.035-.06-.07-.091-.1a6.1,6.1,0,0,0-4.491-1.891q-.309-.017-.623-.017l-1.2,0c-3.848-.021-7.7,0-11.544,0H52.86a16.587,16.587,0,0,0,2.992-1.088,9.348,9.348,0,0,0,5.2-7.22,9.237,9.237,0,0,0-2.506-7.959A9.538,9.538,0,0,0,48.8.407a8.3,8.3,0,0,0-2.511,1.206A15.036,15.036,0,0,0,43.1,5.171a69.006,69.006,0,0,0-4.5,7.491c-.147.273-.284.373-.592.278a4.823,4.823,0,0,0-2.987.009c-.289.094-.42,0-.553-.259C33.7,11.212,32.9,9.757,32.028,8.34a48.234,48.234,0,0,0-3.457-4.994A8.47,8.47,0,0,0,23.37.186a9.3,9.3,0,0,0-5.935.747A9.473,9.473,0,0,0,12.07,7.781a9.08,9.08,0,0,0,.77,6.022,9.361,9.361,0,0,0,5.494,4.884c.592.2,1.184.4,1.9.643-4.583,0-9.03-.005-13.476,0A6.855,6.855,0,0,0,2.3,20.661,5.432,5.432,0,0,0,.051,24.782c-.093,3.062-.028,6.13-.034,9.194a2.218,2.218,0,0,0,.636,1.54,2.652,2.652,0,0,0,2.123.879c.635-.013.665,0,.678.564h0v.123s0,0,0,0v2.142c0,.06,0,.121,0,.182V50.064h0c0,5.5.55,23.546.552,29.044a5.44,5.44,0,0,0,1.116,3.315,5.9,5.9,0,0,0,5.036,2.46q17.533-.023,35.066,0c4.731.005,9.462-.034,14.193.026,1.644.021,3.294.005,4.941-.033a6.575,6.575,0,0,0,1.264-.159,5.986,5.986,0,0,0,4.545-5.785c-.029-1.524,0-3.049,0-4.573,0-6.145-.57-35.07-.568-35.13V37.087s0,0,0,0V36.96h0c.012-.566.043-.577.678-.564a2.652,2.652,0,0,0,2.123-.879,2.218,2.218,0,0,0,.636-1.54c0-.1,0-.192,0-.288h.016Q73.05,31.915,73.05,30.141ZM33.709,79.177c0,.69,0,.687-.681.644-.206-.013-.413-.01-.619-.01H10.563c-.206,0-.413,0-.619,0-.624-.026-.87-.257-.878-.88-.014-1.111,0-2.222,0-3.333,0-8.634-.545-29.814-.545-38.447,0-.753,0-.754.765-.754h23.18c.7,0,.705,0,.706.707q0,7.383,0,14.765C33.166,56.786,33.709,74.255,33.709,79.177Zm-.543-48.5c0,.632,0,.635-.637.636-6.128,0-14.241,0-20.37,0-2.178,0-4.356-.007-6.534.012-.49,0-.622-.154-.615-.628.026-1.635.006-3.27.013-4.906,0-.554.055-1.09.7-1.322a1.732,1.732,0,0,1,.61-.064q6.049,0,12.1,0c4.048,0,10.082.008,14.13-.011.485,0,.624.137.618.618C33.151,26.9,33.167,28.792,33.166,30.68Zm-1.852-14.06c-.08.11-.205.047-.31.034-1.579-.207-3.151-.457-4.721-.73-1.246-.216-2.492-.428-3.719-.727a11.662,11.662,0,0,1-3.877-1.333,5,5,0,0,1-2.245-4.225,5.11,5.11,0,0,1,6.3-4.953,4.674,4.674,0,0,1,2.626,1.836,51.148,51.148,0,0,1,3.87,6.081c.693,1.226,1.338,2.478,2.006,3.717C31.3,16.416,31.395,16.508,31.314,16.621Zm10.509-.305q1.347-2.618,2.835-5.157a46.361,46.361,0,0,1,3.011-4.6,4.562,4.562,0,0,1,3.886-1.992,5.079,5.079,0,0,1,4.94,6.253,4.92,4.92,0,0,1-3.3,3.623A34.529,34.529,0,0,1,48.557,15.6c-1.532.309-3.074.546-4.616.79-.623.1-1.25.17-1.874.263C41.746,16.7,41.649,16.653,41.823,16.315ZM40.894,24.4c6.714.01,14.989.009,21.7.009h4.2a2.163,2.163,0,0,1,.489.05l.046.014a.947.947,0,0,1,.533.427,1.711,1.711,0,0,1,.121.71c0,1.73-.015,3.46.013,5.189a.575.575,0,0,1-.1.413.54.54,0,0,1-.323.11c-.035,0-.072,0-.112,0l-.9,0q-1.983-.012-3.966-.009v0q-3.827,0-7.654,0H41c-.673,0-.674,0-.675-.691,0-1.889.012-3.778-.009-5.666C40.315,24.517,40.461,24.4,40.894,24.4Zm23.19,55.435c-.237-.015-.476-.022-.714-.022-6.86,0-15.281,0-22.141.015-.281,0-.374-.091-.359-.352.008-.142,0-.285,0-.428,0-4.891-.543-22.329-.543-27.22q0-7.385,0-14.768c0-.663,0-.665.654-.665H63.91c.626,0,.627.05.627.754q0,6.513,0,13.027h.013c0,5.392.542,23.331.541,28.723C65.09,79.589,64.774,79.875,64.085,79.832Z" transform="matrix(0.97, -0.26, 0.26, 0.97, 3, 23.57)" fill="#e61b67"/></g><path d="M18.481,68.352c-.372,0-.587-.2-.718-.668-.209-.744-.409-1.5-.6-2.226q-.132-.5-.265-.992C15.773,60.277,13.678,53,11.653,45.953l-.018-.061c-2.017-7.015-4.1-14.268-5.217-18.423v-.005c-.1-.359-.145-.54-.078-.656s.253-.167.623-.266L25.91,21.465l1.3-.348,2.142-.574.026-.007a2.172,2.172,0,0,1,.465-.1c.212,0,.252.152.373.6q1.911,7.132,3.821,14.263c.637,2.378,2.241,7.832,3.793,13.106l.02.069C39.4,53.739,41,59.177,41.631,61.547c.089.332.134.5.072.6s-.225.132-.553.2l-.01,0c-.174.034-.348.081-.515.127h0l-.081.022L32.8,64.57l-2.808.752L19.437,68.149l-.141.039c-.152.042-.305.084-.458.119A1.642,1.642,0,0,1,18.481,68.352Zm30.406-8.1c-.145,0-.221-.08-.261-.275-.018-.086-.042-.173-.066-.257l0-.015c-.014-.047-.027-.095-.04-.142-.633-2.363-2.235-7.809-3.785-13.075s-3.152-10.714-3.785-13.076l-.659-2.458-.849-3.167q-1.157-4.32-2.314-8.64c-.172-.642-.172-.642.458-.812l10.5-2.814.569-.152,11.051-2.961.024-.006a1.794,1.794,0,0,1,.4-.077c.226,0,.269.162.4.643L63.9,25.554l.013,0c.7,2.606,2.366,8.3,3.98,13.812v.005l.01.033c1.607,5.486,3.268,11.159,3.964,13.756a.97.97,0,0,1-.041.776.987.987,0,0,1-.689.388c-.22.044-.454.1-.694.163l-2.2.591c-6.212,1.666-13.252,3.555-19.18,5.154A.688.688,0,0,1,48.887,60.255ZM1.818,22.645c-.24,0-.363-.135-.455-.5-.248-.988-.518-1.988-.779-2.956l-.012-.046-.01-.036c-.151-.558-.306-1.136-.456-1.7-.144-.546-.227-1.069.332-1.456a1.514,1.514,0,0,1,.511-.2l.061-.016,8.365-2.243.145-.039L12.7,12.6l2.812-.753.255-.068c3.559-.952,7.593-2.032,10.579-2.847a1.228,1.228,0,0,1,.309-.051c.236,0,.357.132.447.488.329,1.3.683,2.608,1.026,3.876l.01.037q.211.782.421,1.564c.163.608.158.615-.451.779-8.56,2.3-15,4.021-19.675,5.271l-.725.194-.011,0c-1.829.488-3.719.992-5.573,1.506A1.16,1.16,0,0,1,1.818,22.645Zm34-9.119c-.2,0-.243-.149-.361-.59q-.217-.81-.433-1.622c-.315-1.186-.673-2.529-1.042-3.85a.59.59,0,0,1,0-.454.618.618,0,0,1,.412-.237c6.386-1.7,14.526-3.883,20.469-5.476l.5-.133L59.344.1l.035-.009.009,0,.028-.007A2.176,2.176,0,0,1,59.9,0h.022l.026,0a.95.95,0,0,1,.626.275,1.7,1.7,0,0,1,.3.654q.168.624.334,1.249l.077.288,0,.018c.3,1.134.613,2.306.94,3.453a.574.574,0,0,1,.012.426.533.533,0,0,1-.284.189c-.039.014-.073.024-.106.033l-.424.112-.013,0-.435.115c-1.189.311-2.443.645-3.832,1.019l-6.823,1.83-.572.153-6.467,1.732-.356.1-6.642,1.779A2.169,2.169,0,0,1,35.82,13.526Z" transform="translate(11.381 25.37)" fill="#fff"/></g></g></svg>