<svg xmlns="http://www.w3.org/2000/svg" xmlns:xlink="http://www.w3.org/1999/xlink" width="360" height="360" viewBox="0 0 360 360"><defs><clipPath id="a"><circle cx="180" cy="180" r="180" transform="translate(873.068 1192.339)" fill="none"/></clipPath><linearGradient id="b" x1="0.5" x2="0.5" y2="1" gradientUnits="objectBoundingBox"><stop offset="0" stop-color="#ff7000"/><stop offset="1" stop-color="#ec1377"/></linearGradient></defs><g transform="translate(-873.068 -1192.339)"><g clip-path="url(#a)"><g transform="translate(976.583 1202.977) rotate(14)"><path d="M0,50.227Q2.981,46.363,5.961,42.5,20.4,23.739,34.829,4.975c1-1.3,2.075-2.556,2.984-3.919C38.941-.634,39.7-.1,40.539,1.287q4.826,7.956,9.7,15.88c.9,1.468,1.773,2.955,2.728,4.386.884,1.327.805,2.112-.791,2.913-7.491,3.756-14.907,7.661-22.37,11.472Q15.542,43.225,1.241,50.445a4.2,4.2,0,0,1-.816.226Z" transform="translate(182.203 10.792)" fill="url(#b)"/><path d="M6.981,49.418C5.821,42.488,4.776,35.7,4,28.866c-.566-4.973-1.56-9.9-2.333-14.846C1.109,10.472.623,6.913.073,3.364-.218,1.5.323.7,2.417.665,9.61.552,16.8.2,23.99.012,27.034-.069,27.2.186,26.125,2.9q-7.278,18.468-14.6,36.921c-1.044,2.638-2.087,5.277-3.11,7.923A2.337,2.337,0,0,1,6.981,49.418Z" transform="translate(165.917 0)" fill="url(#b)"/><path d="M46.274,0a19.034,19.034,0,0,1-3.581,4.905Q28.885,21.166,14.967,37.333c-.878,1.025-1.782,2.029-2.631,3.077-.758.937-1.308,1.089-1.978-.138C7.024,34.159,3.64,28.074.265,21.984c-.616-1.112-.094-1.565.912-2.011,5.81-2.578,11.59-5.223,17.388-7.829Q31.66,6.26,44.767.4A12.98,12.98,0,0,1,46.274,0Z" transform="translate(0 240.221)" fill="url(#b)"/><path d="M18.8,41.4c-5.148-.877-11.075-.7-16.993-.707-1.907,0-2.162-.807-1.436-2.385Q7.958,21.826,15.5,5.328c.683-1.491,1.349-2.99,1.987-4.5.23-.544.539-.951,1.154-.794.561.145.464.71.464,1.13-.007,6,.986,11.923,1.539,17.863.567,6.092.747,12.242,1.786,18.295C23.047,40.915,22.6,41.509,18.8,41.4Z" transform="translate(34.92 250.97)" fill="url(#b)"/><path d="M0,7.825c3.784-1.353,7-2.51,10.217-3.652C13.736,2.926,17.29,1.77,20.769.421c1.886-.731,3.2-.636,4.29,1.3,1.694,3,3.588,5.878,5.387,8.814.778,1.27.359,1.905-1.069,1.655-5.75-1.008-11.6-1.231-17.346-2.3-2.564-.479-5.206-.541-7.811-.806A8.453,8.453,0,0,1,0,7.825Z" transform="translate(194.789 58.952)" fill="url(#b)"/><path d="M25.835,4.613c-2.083,1.472-4.363,1.629-6.408,2.3-3.9,1.276-7.9,2.248-11.817,3.487A2.28,2.28,0,0,1,4.48,9.153C3.205,6.782,1.886,4.434.6,2.068.318,1.552-.228.951.1.43.5-.2,1.363.018,1.989.119c3.838.616,7.692,1.174,11.49,1.989C17.465,2.962,21.572,3.221,25.835,4.613Z" transform="translate(10.219 230.441)" fill="url(#b)"/></g></g></g></svg>