<svg xmlns="http://www.w3.org/2000/svg" width="23.744" height="23.019" viewBox="0 0 23.744 23.019">
  <g id="Group_121" data-name="Group 121" transform="translate(23.744) rotate(90)">
    <path id="Path_2" data-name="Path 2" d="M0,11.531c0,3.008.006,6.018,0,9.026,0,.919.083,1.777,1.011,2.269.912.482,1.591-.039,2.259-.546,3.885-2.945,7.78-5.879,11.643-8.854,1.925-1.483,1.917-2.365-.034-3.866C11.015,6.588,7.119,3.655,3.233.711,2.561.2,1.87-.295.969.211A2.136,2.136,0,0,0,0,2.35C.012,5.41.005,8.471,0,11.531Z" transform="translate(23.018 7.394) rotate(90)" fill="#e7147a"/>
    <path id="Path_5" data-name="Path 5" d="M0,11.531c0,3.008.006,6.018,0,9.026,0,.919.083,1.777,1.011,2.269.912.482,1.591-.039,2.259-.546,3.885-2.945,7.78-5.879,11.643-8.854,1.925-1.483,1.917-2.365-.034-3.866C11.015,6.588,7.119,3.655,3.233.711,2.561.2,1.87-.295.969.211A2.136,2.136,0,0,0,0,2.35C.012,5.41.005,8.471,0,11.531Z" transform="translate(23.018 0) rotate(90)" fill="#131820"/>
  </g>
</svg>
