<svg xmlns="http://www.w3.org/2000/svg" width="22.691" height="13.942" viewBox="0 0 22.691 13.942">
  <path id="Path_67" data-name="Path 67" d="M-743.8,148.658a2.61,2.61,0,0,1-.8,1.8c-2.9,2.9-5.792,5.819-8.718,8.7a2.483,2.483,0,0,1-3.648,0,2.522,2.522,0,0,1,.033-3.651c2-2.062,4.01-4.109,6.059-6.119.554-.544.656-.86.043-1.461-2.005-1.965-3.942-4-5.905-6.007-1.24-1.268-1.335-2.749-.249-3.848,1.129-1.143,2.628-1.067,3.921.22,2.756,2.744,5.5,5.5,8.258,8.242A3.045,3.045,0,0,1-743.8,148.658Z" transform="translate(159.951 757.745) rotate(90)" fill="#e61277"/>
</svg>
