<svg xmlns="http://www.w3.org/2000/svg" xmlns:xlink="http://www.w3.org/1999/xlink" width="64.348" height="63.365" viewBox="0 0 64.348 63.365">
  <defs>
    <clipPath id="clip-path">
      <rect id="Rectangle_92" data-name="Rectangle 92" width="43.896" height="43.083" rx="21.542" transform="translate(528.849 325)" fill="#fff"/>
    </clipPath>
    <linearGradient id="linear-gradient" x1="0.5" x2="0.5" y2="1" gradientUnits="objectBoundingBox">
      <stop offset="0" stop-color="#ff7000"/>
      <stop offset="1" stop-color="#ec1377"/>
    </linearGradient>
    <filter id="Path_65" x="0" y="0" width="64.348" height="63.365" filterUnits="userSpaceOnUse">
      <feOffset input="SourceAlpha"/>
      <feGaussianBlur stdDeviation="3" result="blur"/>
      <feFlood flood-opacity="0.553"/>
      <feComposite operator="in" in2="blur"/>
      <feComposite in="SourceGraphic"/>
    </filter>
    <filter id="Path_2" x="22.369" y="19.584" width="22.894" height="28.195" filterUnits="userSpaceOnUse">
      <feOffset dy="2" input="SourceAlpha"/>
      <feGaussianBlur stdDeviation="1.5" result="blur-2"/>
      <feFlood flood-opacity="0.443"/>
      <feComposite operator="in" in2="blur-2"/>
      <feComposite in="SourceGraphic"/>
    </filter>
  </defs>
  <g id="Group_143" data-name="Group 143" transform="translate(-1029.802 -299.277)">
    <g id="Component_35_1" data-name="Component 35 – 1" transform="translate(1039.094 309.493)">
      <g id="Mask_Group_20" data-name="Mask Group 20" transform="translate(-528.849 -325)" clip-path="url(#clip-path)">
        <g id="Group_119" data-name="Group 119" transform="translate(529.284 324)">
          <rect id="Rectangle_91" data-name="Rectangle 91" width="184.496" height="44.083" rx="22.042" transform="translate(-0.435)" fill="#fff"/>
          <text id="Watch_trailer" data-name="Watch trailer" transform="translate(53.688 26.463)" fill="#fb4e41" font-size="18" font-family="SegoeUI, Segoe UI" letter-spacing="0.025em"><tspan x="0" y="0">watch trailer</tspan></text>
        </g>
      </g>
    </g>
    <g id="Group_127" data-name="Group 127" transform="translate(1038.803 308.277)">
      <g transform="matrix(1, 0, 0, 1, -9, -9)" filter="url(#Path_65)">
        <path id="Path_65-2" data-name="Path 65" d="M2186.181,5555.773c-12.771.013-23.246-10.217-23.232-22.687.014-12.433,10.438-22.661,23.111-22.678,12.761-.018,23.236,10.212,23.237,22.69C2209.3,5545.51,2198.847,5555.761,2186.181,5555.773Z" transform="translate(-2153.95 -5501.41)" fill="url(#linear-gradient)"/>
      </g>
      <path id="Path_1" data-name="Path 1" d="M2186.181,5555.773c-12.771.013-23.246-10.217-23.232-22.687.014-12.433,10.438-22.661,23.111-22.678,12.761-.018,23.236,10.212,23.237,22.69C2209.3,5545.51,2198.847,5555.761,2186.181,5555.773Zm-20.561-22.741a20.5,20.5,0,1,0,20.561-20.136A20.319,20.319,0,0,0,2165.62,5533.033Z" transform="translate(-2162.949 -5510.408)" fill="#fff"/>
      <g transform="matrix(1, 0, 0, 1, -9, -9)" filter="url(#Path_2)">
        <path id="Path_2-2" data-name="Path 2" d="M2233.618,5570.326c0-2.508.006-5.018,0-7.527,0-.766.07-1.482.859-1.893s1.352.033,1.919.456c3.3,2.456,6.612,4.9,9.895,7.383,1.636,1.236,1.63,1.972-.029,3.224-3.284,2.48-6.594,4.925-9.9,7.38-.571.424-1.158.838-1.924.417a1.77,1.77,0,0,1-.823-1.783C2233.625,5575.431,2233.619,5572.878,2233.618,5570.326Z" transform="translate(-2206.75 -5538.66)" fill="#fff"/>
      </g>
    </g>
  </g>
</svg>
