<svg xmlns="http://www.w3.org/2000/svg" xmlns:xlink="http://www.w3.org/1999/xlink" width="360" height="360" viewBox="0 0 360 360">
  <defs>
    <clipPath id="clip-path">
      <circle id="Ellipse_3" data-name="Ellipse 3" cx="180" cy="180" r="180" transform="translate(873.068 1192.339)" fill="none"/>
    </clipPath>
    <linearGradient id="linear-gradient" x1="0.5" x2="0.5" y2="1" gradientUnits="objectBoundingBox">
      <stop offset="0" stop-color="#ff7000"/>
      <stop offset="1" stop-color="#ec1377"/>
    </linearGradient>
  </defs>
  <g id="Group_143" data-name="Group 143" transform="translate(-41 -1044)">
    <g id="Group_91" data-name="Group 91" transform="translate(-832.068 -148.339)">
      <g id="Mask_Group_18" data-name="Mask Group 18" clip-path="url(#clip-path)">
        <g id="Group_98" data-name="Group 98" transform="translate(976.583 1202.977) rotate(14)">
          <path id="Path_21" data-name="Path 21" d="M0,50.227Q2.981,46.363,5.961,42.5,20.4,23.739,34.829,4.975c1-1.3,2.075-2.556,2.984-3.919C38.941-.634,39.7-.1,40.539,1.287q4.826,7.956,9.7,15.88c.9,1.468,1.773,2.955,2.728,4.386.884,1.327.805,2.112-.791,2.913-7.491,3.756-14.907,7.661-22.37,11.472Q15.542,43.225,1.241,50.445a4.2,4.2,0,0,1-.816.226Z" transform="translate(182.203 10.792)" fill="url(#linear-gradient)"/>
          <path id="Path_22" data-name="Path 22" d="M6.981,49.418C5.821,42.488,4.776,35.7,4,28.866c-.566-4.973-1.56-9.9-2.333-14.846C1.109,10.472.623,6.913.073,3.364-.218,1.5.323.7,2.417.665,9.61.552,16.8.2,23.99.012,27.034-.069,27.2.186,26.125,2.9q-7.278,18.468-14.6,36.921c-1.044,2.638-2.087,5.277-3.11,7.923A2.337,2.337,0,0,1,6.981,49.418Z" transform="translate(165.917 0)" fill="url(#linear-gradient)"/>
          <path id="Path_23" data-name="Path 23" d="M46.274,0a19.034,19.034,0,0,1-3.581,4.905Q28.885,21.166,14.967,37.333c-.878,1.025-1.782,2.029-2.631,3.077-.758.937-1.308,1.089-1.978-.138C7.024,34.159,3.64,28.074.265,21.984c-.616-1.112-.094-1.565.912-2.011,5.81-2.578,11.59-5.223,17.388-7.829Q31.66,6.26,44.767.4A12.98,12.98,0,0,1,46.274,0Z" transform="translate(0 240.221)" fill="url(#linear-gradient)"/>
          <path id="Path_24" data-name="Path 24" d="M18.8,41.4c-5.148-.877-11.075-.7-16.993-.707-1.907,0-2.162-.807-1.436-2.385Q7.958,21.826,15.5,5.328c.683-1.491,1.349-2.99,1.987-4.5.23-.544.539-.951,1.154-.794.561.145.464.71.464,1.13-.007,6,.986,11.923,1.539,17.863.567,6.092.747,12.242,1.786,18.295C23.047,40.915,22.6,41.509,18.8,41.4Z" transform="translate(34.92 250.97)" fill="url(#linear-gradient)"/>
          <path id="Path_25" data-name="Path 25" d="M0,7.825c3.784-1.353,7-2.51,10.217-3.652C13.736,2.926,17.29,1.77,20.769.421c1.886-.731,3.2-.636,4.29,1.3,1.694,3,3.588,5.878,5.387,8.814.778,1.27.359,1.905-1.069,1.655-5.75-1.008-11.6-1.231-17.346-2.3-2.564-.479-5.206-.541-7.811-.806A8.453,8.453,0,0,1,0,7.825Z" transform="translate(194.789 58.952)" fill="url(#linear-gradient)"/>
          <path id="Path_26" data-name="Path 26" d="M25.835,4.613c-2.083,1.472-4.363,1.629-6.408,2.3-3.9,1.276-7.9,2.248-11.817,3.487A2.28,2.28,0,0,1,4.48,9.153C3.205,6.782,1.886,4.434.6,2.068.318,1.552-.228.951.1.43.5-.2,1.363.018,1.989.119c3.838.616,7.692,1.174,11.49,1.989C17.465,2.962,21.572,3.221,25.835,4.613Z" transform="translate(10.219 230.441)" fill="url(#linear-gradient)"/>
        </g>
      </g>
    </g>
    <g id="Group_90" data-name="Group 90" transform="translate(137.301 1114.683)">
      <g id="Rectangle_77" data-name="Rectangle 77" transform="translate(13.874 68.52)" fill="#fff" stroke="#707070" stroke-width="1">
        <rect width="127.524" height="106.587" stroke="none"/>
        <rect x="0.5" y="0.5" width="126.524" height="105.587" fill="none"/>
      </g>
      <g id="Rectangle_54" data-name="Rectangle 54" transform="translate(4.358 49.487)" fill="#fff" stroke="#707070" stroke-width="1">
        <rect width="144.654" height="19.033" stroke="none"/>
        <rect x="0.5" y="0.5" width="143.654" height="18.033" fill="none"/>
      </g>
      <path id="Path_35" data-name="Path 35" d="M-18.949,1931.083q.011-2.461,0-4.92,0-2.687.006-5.373a11.863,11.863,0,0,0-.26-2.515,11.083,11.083,0,0,0-3.032-5.783c-.064-.073-.127-.147-.193-.219a12.9,12.9,0,0,0-9.49-4q-.653-.036-1.316-.035l-2.539,0c-8.132-.045-16.264,0-24.4,0h-1.448a35,35,0,0,0,6.322-2.3c6.157-3.256,9.993-8.3,10.99-15.257a19.52,19.52,0,0,0-5.3-16.818,19.8,19.8,0,0,0-10.757-6.059,19.891,19.891,0,0,0-9.845.447,17.539,17.539,0,0,0-5.307,2.549,31.767,31.767,0,0,0-6.741,7.516,145.811,145.811,0,0,0-9.5,15.83c-.31.577-.6.789-1.25.587a10.193,10.193,0,0,0-6.311.018c-.61.2-.887,0-1.17-.548-1.615-3.121-3.32-6.2-5.155-9.191a102.052,102.052,0,0,0-7.3-10.553,17.9,17.9,0,0,0-10.992-6.677,19.659,19.659,0,0,0-12.542,1.578,20.017,20.017,0,0,0-11.336,14.47,19.186,19.186,0,0,0,1.627,12.726,19.786,19.786,0,0,0,11.611,10.321c1.25.426,2.5.846,4.022,1.358-9.686,0-19.082-.011-28.478.006-3.407.006-6.653.6-9.42,2.808a11.478,11.478,0,0,0-4.763,8.708c-.2,6.472-.059,12.954-.072,19.43a4.69,4.69,0,0,0,1.344,3.256,5.605,5.605,0,0,0,4.486,1.858c1.342-.027,1.406,0,1.432,1.192h0v.259s0,.006,0,.009v4.525c0,.127,0,.256,0,.385v22.514h0c.009,11.621,1.162,49.757,1.168,61.377a11.5,11.5,0,0,0,2.359,7,12.478,12.478,0,0,0,10.643,5.2q37.051-.048,74.1,0c10,.011,20-.072,29.994.055,3.475.044,6.961.011,10.441-.07a13.966,13.966,0,0,0,2.671-.335,12.651,12.651,0,0,0,9.6-12.225c-.061-3.22,0-6.442,0-9.663,0-12.987-1.2-74.111-1.2-74.238v-4.525s0-.006,0-.009v-.259h.005c.026-1.2.09-1.219,1.432-1.192a5.605,5.605,0,0,0,4.486-1.858,4.69,4.69,0,0,0,1.344-3.256c0-.2,0-.406,0-.609h.034Q-18.949,1934.832-18.949,1931.083Zm-83.137,103.623c0,1.458,0,1.453-1.439,1.361-.435-.028-.872-.02-1.308-.02l-46.166,0c-.436,0-.873.009-1.308-.008-1.319-.054-1.839-.542-1.855-1.859-.029-2.347-.009-4.7-.009-7.044,0-18.245-1.151-63-1.153-81.247,0-1.592,0-1.594,1.616-1.594h48.984c1.488,0,1.491,0,1.491,1.5q0,15.6,0,31.2C-103.233,1987.39-102.085,2024.305-102.086,2034.706Zm-1.147-102.483c0,1.335-.006,1.341-1.346,1.343-12.95,0-30.1.007-43.046,0-4.6,0-9.2-.015-13.807.024-1.036.008-1.315-.326-1.3-1.327.054-3.455.013-6.911.028-10.367.005-1.171.117-2.3,1.472-2.793a3.668,3.668,0,0,1,1.289-.135q12.783-.005,25.565,0c8.555,0,21.305.017,29.86-.022,1.024-.005,1.319.29,1.306,1.306C-103.264,1924.238-103.23,1928.231-103.233,1932.223Zm-3.914-29.712c-.169.233-.433.1-.656.071-3.337-.438-6.659-.966-9.976-1.543-2.632-.458-5.267-.905-7.859-1.536-2.811-.684-5.719-1.167-8.192-2.817a10.555,10.555,0,0,1-4.744-8.929,10.8,10.8,0,0,1,13.311-10.467,9.88,9.88,0,0,1,5.549,3.881,108.125,108.125,0,0,1,8.178,12.851c1.464,2.59,2.828,5.235,4.24,7.854C-107.186,1902.079-106.976,1902.273-107.147,1902.511Zm22.209-.645q2.845-5.533,5.99-10.9a97.945,97.945,0,0,1,6.364-9.726,9.641,9.641,0,0,1,8.213-4.209,10.733,10.733,0,0,1,10.439,13.213,10.4,10.4,0,0,1-6.982,7.656,72.887,72.887,0,0,1-9.792,2.459c-3.236.653-6.5,1.155-9.754,1.67-1.317.208-2.642.361-3.961.557C-85.1,1902.688-85.306,1902.579-84.939,1901.866Zm-1.963,17.079c14.189.021,31.676.019,45.865.019h8.877a4.546,4.546,0,0,1,1.033.105l.1.03a2,2,0,0,1,1.126.9,3.615,3.615,0,0,1,.256,1.5c.007,3.655-.031,7.312.027,10.967a1.217,1.217,0,0,1-.21.874,1.144,1.144,0,0,1-.682.232c-.074,0-.152.007-.237.007q-.953,0-1.906,0-4.19-.025-8.381-.018v.005q-8.088-.005-16.175,0H-86.671c-1.422,0-1.425,0-1.425-1.46,0-3.991.025-7.982-.018-11.973C-88.125,1919.2-87.817,1918.944-86.9,1918.945Zm49.007,117.147c-.5-.032-1.005-.045-1.508-.045-14.5.005-32.292.008-46.788.031-.593,0-.791-.194-.759-.744.017-.3,0-.6,0-.9,0-10.337-1.147-47.187-1.147-57.523q0-15.6,0-31.208c0-1.4.005-1.4,1.381-1.4,15.034,0,33.366,0,48.4,0h.052c1.323.008,1.325.1,1.325,1.594q0,13.764,0,27.531h.027c0,11.394,1.145,49.3,1.143,60.7C-35.771,2035.577-36.438,2036.182-37.895,2036.092Z" transform="translate(173.32 -1867.388)" fill="#e61b67"/>
    </g>
  </g>
</svg>
